<?xml version="1.0" standalone="no"?>
<!DOCTYPE svg PUBLIC "-//W3C//DTD SVG 20010904//EN"
 "http://www.w3.org/TR/2001/REC-SVG-20010904/DTD/svg10.dtd">
<svg version="1.0" xmlns="http://www.w3.org/2000/svg"
 width="2100.000000pt" height="1500.000000pt" viewBox="0 0 2100.000000 1500.000000"
 preserveAspectRatio="xMidYMid meet">

<g transform="translate(0.000000,1500.000000) scale(0.100000,-0.100000)"
fill="#000000" stroke="none">
<path d="M8101 13872 c-1081 -1 -1518 -5 -1527 -13 -11 -9 -14 -85 -18 -348
-2 -185 -4 -343 -5 -351 -1 -8 0 -28 2 -45 3 -26 9 -31 43 -37 21 -4 1179 -7
2572 -7 2154 -1 2537 -3 2560 -15 15 -8 50 -17 77 -21 28 -3 59 -10 70 -15 40
-16 120 -55 135 -66 8 -6 35 -16 60 -23 25 -7 59 -23 75 -35 17 -13 51 -30 77
-38 25 -9 74 -35 108 -57 34 -23 67 -41 74 -41 7 0 24 -8 37 -18 13 -10 44
-24 68 -31 36 -10 70 -37 170 -134 299 -292 426 -427 448 -478 13 -27 57 -88
98 -136 51 -58 79 -100 89 -132 21 -69 53 -138 86 -188 17 -24 30 -48 30 -53
0 -8 21 -52 42 -90 25 -45 42 -92 57 -155 7 -27 24 -68 38 -90 21 -32 28 -57
34 -126 4 -47 12 -95 18 -107 8 -14 11 -164 11 -489 0 -382 -3 -475 -15 -508
-8 -22 -14 -58 -15 -80 0 -39 -25 -124 -45 -155 -19 -29 -47 -116 -60 -183 -7
-37 -20 -76 -28 -85 -24 -28 -77 -122 -77 -138 0 -15 -19 -52 -66 -129 -13
-22 -32 -59 -43 -82 -11 -23 -51 -74 -89 -115 -38 -40 -77 -89 -87 -108 -17
-33 -374 -397 -498 -508 -36 -32 -71 -54 -92 -58 -19 -3 -55 -21 -79 -40 -25
-19 -55 -39 -68 -44 -13 -5 -54 -30 -93 -55 -38 -24 -77 -44 -85 -45 -8 0 -41
-16 -72 -35 -32 -18 -73 -37 -93 -41 -19 -3 -38 -10 -41 -15 -3 -5 -18 -9 -33
-9 -38 0 -90 -18 -126 -45 -21 -16 -52 -24 -105 -29 -52 -5 -87 -15 -117 -33
-41 -24 -54 -26 -216 -30 -134 -4 -179 -9 -202 -22 -27 -15 -166 -16 -1600
-18 -863 -2 -1580 -5 -1593 -8 l-22 -5 2 -393 3 -392 1590 -5 c1568 -5 1590
-5 1620 -25 24 -17 53 -21 170 -26 137 -7 266 -29 292 -51 7 -6 46 -13 85 -16
52 -4 86 -13 126 -33 30 -16 67 -29 83 -29 16 0 47 -11 69 -25 22 -14 43 -25
47 -25 4 0 16 -8 27 -18 12 -10 46 -24 76 -31 132 -32 182 -54 239 -106 57
-52 142 -105 168 -105 17 0 428 -403 550 -539 47 -52 98 -122 115 -155 17 -34
44 -76 59 -94 16 -18 29 -38 29 -44 0 -6 15 -29 33 -52 19 -23 44 -70 56 -105
12 -36 33 -84 47 -107 42 -71 66 -145 71 -214 2 -36 7 -72 10 -80 3 -8 5 -22
4 -32 -1 -9 3 -19 9 -23 6 -3 10 -45 10 -100 0 -52 5 -106 11 -122 6 -15 12
-35 13 -43 1 -8 5 -22 8 -30 3 -8 15 -55 27 -105 19 -82 21 -118 21 -413 0
-271 -2 -328 -15 -353 -9 -16 -19 -60 -22 -97 -4 -47 -15 -82 -35 -119 -32
-57 -54 -123 -72 -219 -6 -35 -23 -78 -39 -101 -15 -22 -43 -77 -62 -123 -19
-45 -52 -110 -75 -144 -22 -35 -40 -66 -40 -70 0 -4 -21 -33 -46 -64 -25 -31
-50 -66 -54 -77 -42 -102 -508 -571 -647 -651 -27 -15 -61 -38 -76 -51 -16
-13 -34 -23 -41 -23 -7 0 -46 -22 -87 -50 -40 -27 -84 -50 -95 -50 -12 0 -44
-15 -70 -33 -28 -20 -67 -36 -92 -39 -50 -7 -135 -49 -177 -88 -16 -15 -40
-33 -52 -39 -16 -8 -724 -11 -2627 -11 -1668 0 -2614 -4 -2630 -10 l-26 -10 0
-385 0 -385 26 -10 c17 -7 504 -10 1351 -10 986 0 1329 -3 1339 -11 9 -8 61
-12 147 -11 185 0 198 0 213 13 20 16 421 14 441 -3 24 -19 1113 -19 1136 0
13 11 79 13 309 13 273 -1 395 7 423 29 6 4 43 10 83 14 40 3 83 12 95 20 12
7 44 16 70 20 33 4 62 16 87 36 21 17 53 33 72 37 18 3 50 19 71 35 21 17 55
32 77 35 21 3 47 14 56 24 9 11 24 19 32 19 8 0 33 15 56 34 23 18 50 36 62
40 12 3 34 20 50 36 16 16 36 30 44 30 9 0 33 9 55 20 22 11 46 20 55 20 8 0
42 25 75 55 33 30 66 55 73 55 8 0 42 25 75 55 34 30 68 55 76 55 18 0 483
468 497 500 6 14 32 48 58 76 25 29 46 57 46 63 0 6 30 46 68 89 88 101 106
129 120 177 20 74 37 111 70 152 17 22 32 47 32 55 0 8 8 23 19 32 10 9 21 35
24 56 3 23 18 56 36 79 17 21 31 45 31 53 0 8 9 23 19 32 12 11 21 38 26 74 5
39 16 69 36 97 23 32 32 57 37 112 6 56 14 79 37 109 28 36 30 45 35 160 3 73
10 127 17 136 7 8 16 48 19 89 4 41 12 80 18 88 8 10 12 151 14 460 3 380 1
452 -13 492 -8 26 -15 73 -15 104 0 71 -18 146 -38 163 -12 9 -18 34 -20 85
-3 57 -9 79 -28 104 -13 18 -29 56 -34 85 -18 92 -51 202 -69 228 -9 14 -25
48 -36 75 -10 28 -31 68 -47 90 -15 22 -41 78 -57 123 -17 46 -45 102 -64 125
-18 23 -42 64 -53 90 -10 27 -33 65 -50 85 -17 20 -39 53 -49 72 -43 84 -121
173 -402 456 -278 280 -332 328 -464 410 -28 18 -63 42 -77 56 -40 35 -84 64
-112 73 -40 13 -90 57 -110 97 -20 43 -22 40 42 58 26 7 55 21 64 31 9 11 22
19 28 19 6 0 34 16 61 36 28 19 70 44 94 55 24 10 78 52 121 92 42 41 101 92
131 114 30 23 158 146 286 275 177 177 237 245 253 281 12 27 36 65 54 85 40
45 110 150 144 217 14 28 38 68 52 90 24 35 99 186 159 315 11 25 29 61 40 80
21 38 56 151 65 213 3 21 19 59 35 84 25 38 31 57 31 102 0 31 5 74 11 96 6
22 16 96 23 165 7 69 18 138 24 153 9 20 12 146 12 438 0 351 -2 414 -16 440
-8 17 -17 68 -20 117 -3 48 -10 105 -15 127 -5 22 -13 73 -18 113 -7 54 -17
83 -40 119 -23 34 -31 58 -31 90 0 24 -7 57 -15 72 -8 16 -19 51 -25 77 -6 27
-19 60 -28 74 -24 33 -104 200 -132 275 -13 33 -33 74 -45 90 -13 17 -39 66
-60 109 -20 42 -64 112 -98 154 -34 42 -81 109 -104 147 -67 112 -709 755
-798 800 -22 11 -64 38 -94 60 -128 94 -228 155 -256 155 -4 0 -27 14 -52 32
-26 17 -78 43 -117 58 -39 15 -89 39 -110 53 -21 15 -48 27 -59 27 -11 0 -44
14 -74 30 -29 17 -65 30 -80 30 -16 0 -43 9 -61 20 -18 11 -48 20 -68 20 -19
0 -56 10 -82 22 -33 16 -70 23 -127 25 -134 5 -2130 8 -3734 5z"/>
<path d="M6572 7515 c3 -3417 5 -4186 16 -4197 11 -11 295 -14 1495 -16 1348
-2 1486 -1 1527 14 25 9 88 20 141 24 90 7 100 10 144 44 34 26 58 36 84 36
40 0 103 20 160 50 20 11 79 39 132 64 111 51 193 122 471 403 122 123 173
182 189 217 11 27 49 87 84 135 75 103 78 109 95 186 7 33 26 78 42 99 19 28
28 52 28 79 0 21 9 59 20 85 20 46 20 64 18 899 -2 468 -5 854 -8 856 -3 3
-173 7 -378 8 -419 2 -406 4 -406 -68 1 -21 2 -357 2 -746 2 -588 -1 -717 -12
-755 -8 -26 -17 -63 -21 -83 -3 -20 -18 -53 -34 -73 -15 -19 -34 -57 -41 -83
-12 -43 -34 -68 -199 -233 -162 -161 -196 -190 -261 -223 -42 -20 -82 -37 -90
-37 -8 0 -39 -17 -69 -37 l-55 -38 -1120 -3 c-617 -1 -1132 0 -1145 3 l-24 6
7 3382 c4 1860 10 3384 13 3387 2 3 496 6 1097 8 l1092 2 79 -40 c43 -22 89
-40 101 -40 29 0 83 -23 136 -59 48 -33 344 -330 400 -401 19 -25 53 -83 75
-130 81 -169 74 -85 72 -932 -1 -541 2 -763 10 -771 8 -8 124 -10 388 -8 208
1 381 5 385 7 5 3 8 397 8 875 0 760 -2 874 -15 900 -9 16 -20 52 -25 79 -5
28 -19 62 -30 78 -11 15 -27 54 -35 87 -9 32 -38 95 -64 140 -27 44 -52 96
-56 115 -6 28 -61 89 -284 314 -152 153 -300 294 -329 313 -30 19 -104 61
-165 92 -62 32 -125 66 -142 75 -16 9 -46 16 -65 16 -45 1 -95 19 -144 53
l-39 27 -1628 0 -1629 0 2 -4185z"/>
</g>
</svg>
