<svg width="260" height="260" viewBox="0 0 260 260" fill="none" xmlns="http://www.w3.org/2000/svg">
<g clip-path="url(#clip0)">
<rect x="48.75" y="16.25" width="162.5" height="16.25" fill="black"/>
<rect x="48.75" y="227.5" width="162.5" height="16.25" fill="black"/>
<rect x="8.125" y="8.125" width="32.5" height="32.5" fill="white" stroke="#28B2FF" stroke-width="16.25"/>
<rect x="219.375" y="8.125" width="32.5" height="32.5" fill="white" stroke="#28B2FF" stroke-width="16.25"/>
<rect x="8.125" y="219.375" width="32.5" height="32.5" fill="white" stroke="#28B2FF" stroke-width="16.25"/>
<rect x="219.375" y="219.375" width="32.5" height="32.5" fill="white" stroke="#28B2FF" stroke-width="16.25"/>
<rect x="16.25" y="211.25" width="162.5" height="16.25" transform="rotate(-90 16.25 211.25)" fill="black"/>
<rect x="227.5" y="211.25" width="162.5" height="16.25" transform="rotate(-90 227.5 211.25)" fill="black"/>
<path fill-rule="evenodd" clip-rule="evenodd" d="M65 73.125H195V81.25V89.375V113.75V130H162.5V186.875H154.375H146.25H113.75H105.625H97.5V130H65V113.75V89.375V81.25V73.125ZM146.25 170.625V130V113.75H162.5H178.75V89.375H81.25V113.75H97.5H113.75V130V170.625H146.25Z" fill="black"/>
</g>
<defs>
<clipPath id="clip0">
<rect width="260" height="260" fill="white"/>
</clipPath>
</defs>
</svg>
